<svg xmlns="http://www.w3.org/2000/svg" viewBox="0 0 250 250"><defs><linearGradient id="Blanc_Noir" y1="125" x2="250" y2="125" gradientUnits="userSpaceOnUse"><stop offset="0" stop-color="#fff"/><stop offset="1" stop-color="#1d1d1b"/></linearGradient><style>.cls-4{fill:none}.cls-5{fill:#0083d4}</style></defs><g id="Layer_2" data-name="Layer 2"><g id="Pouces"><g id="Pouce_Droit" data-name="Pouce Droit"><path d="M104.87 43a21 21 0 01-37.35 13.1 89 89 0 0136.55-18.84 21.11 21.11 0 01.8 5.74z" stroke="#575756" stroke-miterlimit="10" stroke-width="4" fill="none"/><circle cx="125.62" cy="126.02" r="114.38" transform="rotate(-45 125.61 126.02)" fill="#1a012b"/><path d="M217.63 41.07A125 125 0 10250 125a124.66 124.66 0 00-32.37-83.93zM125 240.7A113.68 113.68 0 0180.75 22.31 113.68 113.68 0 11125 240.7z" fill="url(#Blanc_Noir)"/><ellipse class="cls-4" cx="125" cy="73.96" rx="9.47" ry="9.18"/><path class="cls-4" d="M183.39 55.82a21 21 0 01-36.73-18.68 88.87 88.87 0 0136.73 18.68zm-62.07 100.72v56.86a89.34 89.34 0 01-21.83-3.78 14.77 14.77 0 001.8-7.08 15.46 15.46 0 00-15.7-15.21 15.75 15.75 0 00-13.87 8.1A89.84 89.84 0 0151 173.32a16.11 16.11 0 00-5.61-31.2 15.88 15.88 0 00-7 1.6 89.65 89.65 0 01-2.17-19.65c0-2 .07-4 .2-6a17.7 17.7 0 004.69.64 17.44 17.44 0 004.36-34.32 90.38 90.38 0 019.14-14.68A105 105 0 00125 96.51a79.75 79.75 0 01-25 22.23c-29.22 13.96-25 34.52-25 34.52s4.51 20.3 23.31 19.73c19.18-.59 23.01-16.45 23.01-16.45zM104.87 43a21 21 0 01-37.35 13.1 89 89 0 0136.55-18.84 21.11 21.11 0 01.8 5.74z"/><ellipse class="cls-4" cx="125" cy="73.96" rx="9.47" ry="9.18"/><path class="cls-4" d="M183.39 55.82a21 21 0 01-36.73-18.68 88.87 88.87 0 0136.73 18.68zm-62.07 100.72v56.86a89.34 89.34 0 01-21.83-3.78 14.77 14.77 0 001.8-7.08 15.46 15.46 0 00-15.7-15.21 15.75 15.75 0 00-13.87 8.1A89.84 89.84 0 0151 173.32a16.11 16.11 0 00-5.61-31.2 15.88 15.88 0 00-7 1.6 89.65 89.65 0 01-2.17-19.65c0-2 .07-4 .2-6a17.7 17.7 0 004.69.64 17.44 17.44 0 004.36-34.32 90.38 90.38 0 019.14-14.68A105 105 0 00125 96.51a79.75 79.75 0 01-25 22.23c-29.22 13.96-25 34.52-25 34.52s4.51 20.3 23.31 19.73c19.18-.59 23.01-16.45 23.01-16.45zM104.87 43a21 21 0 01-37.35 13.1 89 89 0 0136.55-18.84 21.11 21.11 0 01.8 5.74z"/><path class="cls-4" d="M104.87 43a21 21 0 01-37.35 13.1 89 89 0 0136.55-18.84 21.11 21.11 0 01.8 5.74z"/><ellipse class="cls-4" cx="125" cy="73.96" rx="9.47" ry="9.18"/><path class="cls-4" d="M183.39 55.82a21 21 0 01-36.73-18.68 88.87 88.87 0 0136.73 18.68z"/><path class="cls-5" d="M121.32 156.54v56.86a89.34 89.34 0 01-21.83-3.78 14.77 14.77 0 001.8-7.08 15.46 15.46 0 00-15.7-15.21 15.75 15.75 0 00-13.87 8.1A89.84 89.84 0 0151 173.32a16.11 16.11 0 00-5.61-31.2 15.88 15.88 0 00-7 1.6 89.65 89.65 0 01-2.17-19.65c0-2 .07-4 .2-6a17.7 17.7 0 004.69.64 17.44 17.44 0 004.36-34.32 90.38 90.38 0 019.14-14.68A105 105 0 00125 96.51a79.75 79.75 0 01-25 22.23c-29.22 13.96-25 34.52-25 34.52s4.51 20.3 23.31 19.73c19.18-.59 23.01-16.45 23.01-16.45z"/><path class="cls-4" d="M183.39 55.82a21 21 0 01-36.73-18.68 88.87 88.87 0 0136.73 18.68z"/><path class="cls-5" d="M104.87 43a21 21 0 01-37.35 13.1 89 89 0 0136.55-18.84 21.11 21.11 0 01.8 5.74z"/><ellipse class="cls-4" cx="125" cy="73.96" rx="9.47" ry="9.18"/><path class="cls-5" d="M183.39 55.82a21 21 0 01-36.73-18.68 88.87 88.87 0 0136.73 18.68z"/><ellipse class="cls-5" cx="125" cy="73.96" rx="9.47" ry="9.18"/><path class="cls-5" d="M129.3 156.54v56.86a89.42 89.42 0 0021.83-3.78 14.67 14.67 0 01-1.81-7.08A15.46 15.46 0 01165 187.33a15.76 15.76 0 0113.88 8.1 89.61 89.61 0 0020.75-22.11 16.11 16.11 0 015.62-31.2 15.94 15.94 0 017 1.6 89.65 89.65 0 002.16-19.65c0-2-.06-4-.2-6a17.64 17.64 0 01-4.69.64 17.44 17.44 0 01-4.36-34.32A89 89 0 00196 69.74a105 105 0 01-70.41 26.77 79.78 79.78 0 0025 22.23c29.19 14 24.94 34.52 24.94 34.52s-4.51 20.3-23.31 19.73c-19.1-.59-22.92-16.45-22.92-16.45z"/></g></g></g></svg>